<svg width="86" height="40" viewBox="0 0 86 40" fill="none" xmlns="http://www.w3.org/2000/svg">
    <path d="M5.248 12.572L3.17903 14.7444L3.20681 14.7709L3.23526 14.7966L5.248 12.572ZM5.416 9.408L7.36141 11.6917L7.36837 11.6858L5.416 9.408ZM9.028 9.24L7.17908 11.6025L9.028 9.24ZM8.944 12.46L10.9317 14.707L10.9555 14.6859L10.9788 14.6644L8.944 12.46ZM4.128 26.852L1.59022 28.4519L1.60255 28.4715L1.61517 28.4908L4.128 26.852ZM3.624 20.216L0.665952 19.716L0.663061 19.7332L0.660369 19.7503L3.624 20.216ZM4.464 16.52L7.34134 17.3691L7.34677 17.3507L7.35195 17.3322L4.464 16.52ZM7.376 19.152L10.307 19.7915L10.3099 19.7783L10.3127 19.7652L7.376 19.152ZM8.944 24.36L6.90578 22.1587H6.90578L8.944 24.36ZM10.96 22.148L8.68223 20.1956L8.66867 20.2114L8.65534 20.2274L10.96 22.148ZM12.276 22.092L9.68466 23.6036L9.72997 23.6813L9.77985 23.7561L12.276 22.092ZM11.968 24.752L9.69753 22.7911L9.67142 22.8214L9.64613 22.8523L11.968 24.752ZM7.012 10.104C6.8366 10.104 6.79714 10.0831 6.84923 10.0988C6.9121 10.1177 7.07798 10.182 7.26074 10.3474L3.23526 14.7966C4.39333 15.8444 5.83565 16.104 7.012 16.104V10.104ZM7.31697 10.3996C7.44958 10.5259 7.55073 10.6826 7.60966 10.8369C7.66422 10.9798 7.66 11.0605 7.66 11.032H1.66C1.66 12.3235 2.07191 13.69 3.17903 14.7444L7.31697 10.3996ZM7.66 11.032C7.66 11.1011 7.64417 11.2401 7.56875 11.4021C7.49382 11.563 7.40168 11.6574 7.3614 11.6917L3.4706 7.12427C2.30781 8.1148 1.66 9.48621 1.66 11.032H7.66ZM7.36837 11.6858C7.36088 11.6922 7.34722 11.7026 7.32812 11.7136C7.30896 11.7246 7.29082 11.7325 7.27656 11.7375C7.26261 11.7423 7.25844 11.7423 7.26766 11.7408C7.2773 11.7393 7.30307 11.736 7.348 11.736V5.736C5.95223 5.736 4.59173 6.16328 3.46363 7.13023L7.36837 11.6858ZM7.348 11.736C7.45273 11.736 7.46889 11.749 7.42396 11.7355C7.37217 11.7199 7.27942 11.681 7.17908 11.6025L10.8769 6.87748C9.79262 6.02889 8.52719 5.736 7.348 5.736V11.736ZM7.17908 11.6025C7.02887 11.485 6.87738 11.3066 6.77624 11.0823C6.68016 10.8693 6.672 10.7097 6.672 10.668H12.672C12.672 9.26558 12.1337 7.86106 10.8769 6.87748L7.17908 11.6025ZM6.672 10.668C6.672 10.7147 6.6651 10.6589 6.7106 10.5469C6.75948 10.4265 6.83574 10.3234 6.90916 10.2556L10.9788 14.6644C12.1628 13.5715 12.672 12.1313 12.672 10.668H6.672ZM6.95628 10.213C6.98986 10.1833 7.02679 10.157 7.06415 10.1357C7.10121 10.1146 7.13098 10.1027 7.14832 10.097C7.18218 10.0857 7.14814 10.104 7.012 10.104V16.104C8.36508 16.104 9.7755 15.7298 10.9317 14.707L6.95628 10.213ZM6.788 25.14C6.53145 25.14 6.47282 25.0948 6.52043 25.1179C6.54369 25.1291 6.57456 25.1485 6.60414 25.1749C6.63313 25.2007 6.64409 25.2182 6.64083 25.2132L1.61517 28.4908C2.83728 30.3647 4.77653 31.14 6.788 31.14V25.14ZM6.66578 25.2521C6.52387 25.027 6.316 24.5042 6.316 23.436H0.316C0.316 25.2051 0.649459 26.9597 1.59022 28.4519L6.66578 25.2521ZM6.316 23.436C6.316 22.8141 6.39444 21.9111 6.58763 20.6817L0.660369 19.7503C0.442892 21.1342 0.316 22.3779 0.316 23.436H6.316ZM6.58205 20.716C6.78868 19.4934 7.04325 18.3793 7.34134 17.3691L1.58666 15.6709C1.21275 16.9381 0.90732 18.288 0.665952 19.716L6.58205 20.716ZM7.35195 17.3322C7.39343 17.1848 7.41606 17.1559 7.39169 17.2006C7.3684 17.2432 7.25989 17.4308 7.01008 17.6306L3.26192 12.9454C2.24884 13.7559 1.80334 14.8996 1.57605 15.7078L7.35195 17.3322ZM7.01008 17.6306C6.73097 17.8539 6.48827 17.9268 6.40961 17.9464C6.33171 17.9659 6.34123 17.952 6.48 17.952V11.952C5.62541 11.952 4.339 12.0837 3.26192 12.9454L7.01008 17.6306ZM6.48 17.952C6.71741 17.952 6.37084 18.0088 5.8869 17.6861C5.60514 17.4983 5.32689 17.212 5.13547 16.8291C4.95026 16.4587 4.908 16.1221 4.908 15.904H10.908C10.908 14.7127 10.3897 13.4769 9.2151 12.6938C8.25516 12.0539 7.19459 11.952 6.48 11.952V17.952ZM4.908 15.904C4.908 15.8698 4.90241 16.0441 4.81445 16.5811C4.73562 17.0623 4.61223 17.7107 4.43933 18.5388L10.3127 19.7652C10.6466 18.1659 10.908 16.7468 10.908 15.904H4.908ZM4.44495 18.5125C4.00682 20.5206 3.704 22.2217 3.704 23.324H9.704C9.704 22.9703 9.84918 21.8901 10.307 19.7915L4.44495 18.5125ZM3.704 23.324C3.704 24.0738 3.7914 25.047 4.24472 25.9536L9.61128 23.2704C9.65728 23.3624 9.68337 23.4358 9.69734 23.4812C9.70448 23.5045 9.70904 23.5222 9.71175 23.5338C9.71447 23.5453 9.71556 23.5516 9.71564 23.552C9.71565 23.5521 9.71251 23.5337 9.70949 23.4937C9.7065 23.454 9.704 23.3981 9.704 23.324H3.704ZM4.24472 25.9536C4.54 26.5442 5.01121 27.1209 5.69959 27.5289C6.37733 27.9305 7.08199 28.06 7.684 28.06V22.06C7.93134 22.06 8.33267 22.1148 8.75841 22.3671C9.19479 22.6257 9.46534 22.9785 9.61128 23.2704L4.24472 25.9536ZM7.684 28.06C9.25038 28.06 10.4154 27.0862 10.9822 26.5613L6.90578 22.1587C6.76144 22.2924 6.72575 22.3005 6.79407 22.2625C6.84968 22.2316 7.16965 22.06 7.684 22.06V28.06ZM10.9822 26.5613C11.6311 25.9604 12.402 25.1038 13.2647 24.0686L8.65534 20.2274C7.83803 21.2082 7.26486 21.8262 6.90578 22.1587L10.9822 26.5613ZM13.2378 24.1004C13.1511 24.2015 12.978 24.3721 12.698 24.5173C12.4034 24.67 12.0635 24.756 11.716 24.756V18.756C10.3629 18.756 9.33383 19.4354 8.68223 20.1956L13.2378 24.1004ZM11.716 24.756C11.3577 24.756 10.9195 24.6674 10.4945 24.4125C10.079 24.1632 9.82515 23.8444 9.68466 23.6036L14.8673 20.5804C14.2441 19.5119 13.1121 18.756 11.716 18.756V24.756ZM9.77985 23.7561C9.48258 23.3102 9.5 22.9599 9.5 23.016H15.5C15.5 22.2881 15.3681 21.3218 14.7721 20.4279L9.77985 23.7561ZM9.5 23.016C9.5 23.1581 9.48244 23.1839 9.49867 23.131C9.5179 23.0682 9.5728 22.9356 9.69753 22.7911L14.2385 26.7129C15.2147 25.5824 15.5 24.212 15.5 23.016H9.5ZM9.64613 22.8523C7.93081 24.9488 6.97751 25.14 6.788 25.14V31.14C9.80916 31.14 12.3092 29.0725 14.2899 26.6517L9.64613 22.8523ZM36.7226 22.092L34.1313 23.6036L34.1766 23.6813L34.2265 23.7561L36.7226 22.092ZM36.4146 24.752L34.1017 22.8414L34.0972 22.8468L34.0928 22.8523L36.4146 24.752ZM26.1666 26.04L28.5398 24.2048L26.1666 26.04ZM24.6266 18.116L27.615 18.3797L27.9608 14.4606L24.09 15.1644L24.6266 18.116ZM20.5946 18.62L20.8247 21.6112H20.8247L20.5946 18.62ZM18.6066 18.76L18.4489 15.7641L16.1128 15.8871L15.6627 18.1828L18.6066 18.76ZM17.0386 25.76L14.1236 25.0509L14.1224 25.0561L17.0386 25.76ZM13.1466 25.564L10.235 24.8414L10.2244 24.8839L10.2151 24.9267L13.1466 25.564ZM14.6586 19.068L17.5943 19.686L18.3892 15.91L14.5337 16.0706L14.6586 19.068ZM13.3146 19.124V22.124H13.3771L13.4395 22.1214L13.3146 19.124ZM11.9706 18.816L10.0965 21.1586L10.1457 21.198L10.1965 21.2352L11.9706 18.816ZM12.0826 16.408L13.9416 18.7626L13.9788 18.7333L14.015 18.7027L12.0826 16.408ZM13.8466 15.904L13.7335 12.9061L13.7219 12.9066L13.7104 12.9071L13.8466 15.904ZM15.3306 15.848L15.4438 18.8459L17.8451 18.7552L18.2809 16.392L15.3306 15.848ZM15.6666 8.036L17.9824 6.12888L17.9824 6.12887L15.6666 8.036ZM10.2066 10.836L12.5897 12.6583L12.597 12.6488L12.6042 12.6393L10.2066 10.836ZM8.72262 10.948L11.1005 9.11887L8.72262 10.948ZM9.14262 8.176L6.70951 6.42097L6.70143 6.43228L9.14262 8.176ZM12.2506 5.376L13.7598 7.96874L13.7742 7.96038L13.7885 7.95186L12.2506 5.376ZM18.8586 5.516L16.4906 7.35782L16.5133 7.38705L16.5368 7.41571L18.8586 5.516ZM19.1946 15.68L16.2366 15.18L15.6135 18.8666L19.3475 18.6761L19.1946 15.68ZM21.9386 15.54L21.7959 12.5434L21.7858 12.5439L21.9386 15.54ZM24.9626 15.26L25.4237 18.2243L27.5721 17.8902L27.9232 15.7445L24.9626 15.26ZM34.7346 4.564L32.3058 6.3249L32.3164 6.33957L32.3272 6.35411L34.7346 4.564ZM28.4626 17.08L27.3983 14.2751L25.6138 14.9523L25.471 16.8556L28.4626 17.08ZM29.1066 23.576L31.6894 22.0498L31.6894 22.0498L29.1066 23.576ZM33.2506 24.22L34.8271 26.7724L34.8539 26.7558L34.8804 26.7387L33.2506 24.22ZM35.4066 22.148L33.1289 20.1956L33.1116 20.2158L33.0947 20.2362L35.4066 22.148ZM31.0666 7L28.5226 5.41L28.5082 5.43313L28.4941 5.45651L31.0666 7ZM29.7786 10.052L32.6369 10.9633V10.9633L29.7786 10.052ZM28.7986 14.28L25.8356 13.8103L24.9981 19.0929L29.9426 17.0533L28.7986 14.28ZM32.1026 11.648L34.649 13.2342L32.1026 11.648ZM32.9426 6.244L30.3877 7.81629L30.3877 7.8163L32.9426 6.244ZM36.1626 24.756C35.8043 24.756 35.3661 24.6674 34.9411 24.4125C34.5257 24.1632 34.2718 23.8444 34.1313 23.6036L39.314 20.5804C38.6907 19.5119 37.5587 18.756 36.1626 18.756V24.756ZM34.2265 23.7561C33.9292 23.3102 33.9466 22.9599 33.9466 23.016H39.9466C39.9466 22.2881 39.8147 21.3218 39.2188 20.4279L34.2265 23.7561ZM33.9466 23.016C33.9466 23.1404 33.9311 23.1634 33.9453 23.117C33.9528 23.0926 33.9675 23.0523 33.9942 23.0017C34.0212 22.9507 34.0568 22.8957 34.1017 22.8414L38.7275 26.6626C39.6472 25.5493 39.9466 24.2245 39.9466 23.016H33.9466ZM34.0928 22.8523C32.5777 24.704 31.3805 25.14 30.5066 25.14V31.14C33.8141 31.14 36.5556 29.3173 38.7365 26.6517L34.0928 22.8523ZM30.5066 25.14C29.5995 25.14 29.0391 24.8505 28.5398 24.2048L23.7935 27.8752C25.4594 30.0295 27.7924 31.14 30.5066 31.14V25.14ZM28.5398 24.2048C28.0168 23.5285 27.5426 22.273 27.5426 20.02H21.5426C21.5426 22.9937 22.1511 25.7515 23.7935 27.8752L28.5398 24.2048ZM27.5426 20.02C27.5426 19.4737 27.5667 18.927 27.615 18.3797L21.6382 17.8523C21.5745 18.5743 21.5426 19.297 21.5426 20.02H27.5426ZM24.09 15.1644C22.9744 15.3672 21.7341 15.5235 20.3645 15.6288L20.8247 21.6112C22.3671 21.4925 23.8148 21.3128 25.1633 21.0676L24.09 15.1644ZM20.3645 15.6288C19.3903 15.7038 18.7622 15.7477 18.4489 15.7641L18.7643 21.7559C19.1604 21.735 19.8576 21.6856 20.8247 21.6112L20.3645 15.6288ZM15.6627 18.1828C15.301 20.0275 14.7894 22.3139 14.1236 25.0509L19.9536 26.4691C20.6319 23.6807 21.1656 21.3005 21.5506 19.3372L15.6627 18.1828ZM14.1224 25.0561C14.0606 25.3119 14.0003 25.4701 13.9604 25.5554C13.9206 25.6405 13.9157 25.6224 13.9763 25.5564C14.0441 25.4827 14.1685 25.3775 14.3513 25.2972C14.5342 25.2168 14.6967 25.196 14.7986 25.196V31.196C16.1901 31.196 17.4525 30.6403 18.3929 29.6176C19.2439 28.6922 19.6959 27.5369 19.9549 26.4639L14.1224 25.0561ZM14.7986 25.196C14.5947 25.196 15.0018 25.1434 15.4692 25.567C15.9927 26.0414 16.0066 26.5706 16.0066 26.572H10.0066C10.0066 27.6561 10.3193 28.9972 11.4401 30.013C12.5048 30.9779 13.8079 31.196 14.7986 31.196V25.196ZM16.0066 26.572C16.0066 26.6309 16.0019 26.6313 16.0131 26.5507C16.0234 26.4762 16.0432 26.362 16.0782 26.2013L10.2151 24.9267C10.1065 25.4261 10.0066 26.0084 10.0066 26.572H16.0066ZM16.0583 26.2866C16.6981 23.7086 17.2111 21.5061 17.5943 19.686L11.723 18.45C11.3595 20.1765 10.8645 22.3047 10.235 24.8414L16.0583 26.2866ZM14.5337 16.0706L13.1897 16.1266L13.4395 22.1214L14.7835 22.0654L14.5337 16.0706ZM13.3146 16.124C13.1611 16.124 13.1311 16.1101 13.1868 16.1228C13.2388 16.1347 13.4668 16.193 13.7447 16.3968L10.1965 21.2352C11.2569 22.0128 12.4967 22.124 13.3146 22.124V16.124ZM13.8447 16.4734C14.1391 16.7089 14.3367 17.0033 14.4461 17.2805C14.5466 17.5352 14.5506 17.7161 14.5506 17.752H8.55063C8.55063 18.8052 8.87408 20.1806 10.0965 21.1586L13.8447 16.4734ZM14.5506 17.752C14.5506 17.7213 14.5563 17.8478 14.473 18.0581C14.3805 18.2919 14.2068 18.5533 13.9416 18.7626L10.2237 14.0534C8.90915 15.0911 8.55063 16.5733 8.55063 17.752H14.5506ZM14.015 18.7027C13.8971 18.8021 13.7928 18.8627 13.7234 18.8971C13.6548 18.931 13.6139 18.9425 13.6138 18.9426C13.6134 18.9427 13.6421 18.9346 13.7069 18.9252C13.7712 18.9158 13.8619 18.9064 13.9828 18.9009L13.7104 12.9071C12.6823 12.9538 11.2721 13.1685 10.1502 14.1133L14.015 18.7027ZM13.9598 18.9019L15.4438 18.8459L15.2175 12.8501L13.7335 12.9061L13.9598 18.9019ZM18.2809 16.392C18.7747 13.7142 19.0586 11.4903 19.0586 9.828H13.0586C13.0586 10.9284 12.8572 12.7178 12.3804 15.304L18.2809 16.392ZM19.0586 9.828C19.0586 9.25835 19.0178 8.65925 18.8913 8.08091C18.7699 7.52589 18.527 6.79016 17.9824 6.12888L13.3508 9.94312C13.202 9.76241 13.1211 9.6025 13.0807 9.50826C13.0598 9.45959 13.047 9.42202 13.0398 9.39873C13.0361 9.38684 13.0336 9.37784 13.0321 9.37202C13.0306 9.36619 13.0299 9.36313 13.0299 9.36309C13.0299 9.36304 13.0305 9.36563 13.0315 9.37106C13.0324 9.37648 13.0338 9.38441 13.0353 9.39501C13.0385 9.41644 13.0423 9.44689 13.0458 9.48728C13.0531 9.56926 13.0586 9.68141 13.0586 9.828H19.0586ZM17.9824 6.12887C17.1227 5.08496 15.9106 4.56 14.6306 4.56V10.56C14.4691 10.56 14.2274 10.5283 13.9591 10.405C13.6871 10.2801 13.4843 10.1051 13.3508 9.94312L17.9824 6.12887ZM14.6306 4.56C13.1207 4.56 11.81 5.19003 10.7593 5.96806C9.70609 6.74798 8.72799 7.811 7.80909 9.03272L12.6042 12.6393C13.3279 11.677 13.9085 11.102 14.3299 10.7899C14.7539 10.476 14.8339 10.56 14.6306 10.56V4.56ZM7.82355 9.01365C7.87655 8.94434 8.02626 8.76799 8.30447 8.60491C8.60505 8.4287 8.98325 8.312 9.39463 8.312V14.312C10.9224 14.312 11.9863 13.4475 12.5897 12.6583L7.82355 9.01365ZM9.39463 8.312C9.74952 8.312 10.1211 8.39982 10.4595 8.58312C10.7838 8.75878 10.9884 8.97312 11.1005 9.11887L6.34475 12.7771C6.98949 13.6153 8.03545 14.312 9.39463 14.312V8.312ZM11.1005 9.11887C11.3995 9.50761 11.4426 9.88471 11.4426 10.024H5.44263C5.44263 10.91 5.67239 11.9031 6.34475 12.7771L11.1005 9.11887ZM11.4426 10.024C11.4426 10.1443 11.4174 10.2056 11.4231 10.1907C11.4308 10.1704 11.4693 10.0801 11.5838 9.91972L6.70143 6.43228C6.00842 7.4025 5.44263 8.61959 5.44263 10.024H11.4426ZM11.5757 9.93101C12.1435 9.14381 12.861 8.49196 13.7598 7.96874L10.7414 2.78326C9.13896 3.71603 7.78438 4.93086 6.70954 6.42099L11.5757 9.93101ZM13.7885 7.95186C14.6364 7.44563 15.3802 7.256 16.0586 7.256V1.256C14.161 1.256 12.3662 1.81303 10.7128 2.80013L13.7885 7.95186ZM16.0586 7.256C16.3185 7.256 16.423 7.30022 16.4375 7.30676C16.4465 7.3108 16.4488 7.31278 16.4505 7.31408C16.4525 7.31572 16.4665 7.3269 16.4906 7.35782L21.2267 3.67418C19.9203 1.99457 18.0505 1.256 16.0586 1.256V7.256ZM16.5368 7.41571C16.5636 7.44858 16.8666 7.90022 16.8666 9.38H22.8666C22.8666 7.35044 22.4976 5.22608 21.1805 3.61628L16.5368 7.41571ZM16.8666 9.38C16.8666 10.6835 16.6738 12.5933 16.2366 15.18L22.1527 16.18C22.6115 13.4653 22.8666 11.1752 22.8666 9.38H16.8666ZM19.3475 18.6761L22.0915 18.5361L21.7858 12.5439L19.0418 12.6839L19.3475 18.6761ZM22.0813 18.5366C23.3267 18.4773 24.4469 18.3763 25.4237 18.2243L24.5015 12.2957C23.7984 12.405 22.9026 12.4907 21.7959 12.5434L22.0813 18.5366ZM27.9232 15.7445C28.2287 13.8776 28.6911 12.1556 29.3019 10.5709L23.7033 8.41311C22.9328 10.4124 22.3685 12.5358 22.002 14.7755L27.9232 15.7445ZM29.3019 10.5709C29.8918 9.04026 30.5741 7.93226 31.2901 7.15117L26.8672 3.09683C25.5298 4.55574 24.4947 6.35974 23.7033 8.41311L29.3019 10.5709ZM31.2901 7.15117C31.8701 6.51842 32.2587 6.444 32.5226 6.444V0.443999C30.2479 0.443999 28.3405 1.48958 26.8672 3.09683L31.2901 7.15117ZM32.5226 6.444C32.5555 6.444 32.5559 6.44722 32.5316 6.44179C32.506 6.43606 32.4662 6.42365 32.4205 6.40047C32.3746 6.37724 32.3388 6.35136 32.3152 6.33071C32.2926 6.31093 32.2911 6.30461 32.3058 6.3249L37.1635 2.8031C36.0498 1.26704 34.4036 0.443999 32.5226 0.443999V6.444ZM32.3272 6.35411C32.3778 6.42213 32.5466 6.69462 32.5466 7.448H38.5466C38.5466 5.81204 38.1741 4.16186 37.142 2.77389L32.3272 6.35411ZM32.5466 7.448C32.5466 9.23023 32.1018 10.5404 31.3589 11.5506C30.6015 12.5803 29.3629 13.5297 27.3983 14.2751L29.5269 19.8849C32.285 18.8383 34.5884 17.2864 36.1924 15.1054C37.8108 12.9049 38.5466 10.2951 38.5466 7.448H32.5466ZM25.471 16.8556C25.409 17.6821 25.3786 18.5318 25.3786 19.404H31.3786C31.3786 18.6709 31.4042 17.9713 31.4542 17.3044L25.471 16.8556ZM25.3786 19.404C25.3786 21.4442 25.6013 23.541 26.5238 25.1022L31.6894 22.0498C31.6968 22.0623 31.6021 21.8951 31.516 21.4013C31.4333 20.9274 31.3786 20.2723 31.3786 19.404H25.3786ZM26.5238 25.1022C27.4918 26.7402 29.1046 27.808 31.1506 27.808V21.808C31.1666 21.808 31.2181 21.8101 31.2937 21.83C31.3711 21.8504 31.4531 21.8841 31.5303 21.9306C31.6926 22.0285 31.7293 22.1173 31.6894 22.0498L26.5238 25.1022ZM31.1506 27.808C32.4576 27.808 33.7059 27.4649 34.8271 26.7724L31.6742 21.6676C31.526 21.7591 31.3743 21.808 31.1506 21.808V27.808ZM34.8804 26.7387C35.8864 26.0878 36.8323 25.1315 37.7186 24.0598L33.0947 20.2362C32.3756 21.1058 31.8842 21.5309 31.6209 21.7013L34.8804 26.7387ZM37.6844 24.1004C37.5977 24.2015 37.4246 24.3721 37.1446 24.5173C36.85 24.67 36.5101 24.756 36.1626 24.756V18.756C34.8095 18.756 33.7805 19.4354 33.1289 20.1956L37.6844 24.1004ZM32.3826 2.88C31.2244 2.88 30.3467 3.41116 29.8013 3.87538C29.2584 4.33743 28.8424 4.89833 28.5226 5.41L33.6106 8.58999C33.7575 8.355 33.7942 8.3559 33.69 8.44462C33.5832 8.5355 33.1301 8.88 32.3826 8.88V2.88ZM28.4941 5.45651C27.8802 6.47971 27.3674 7.73872 26.9204 9.14068L32.6369 10.9633C33.0112 9.78928 33.357 9.01362 33.6391 8.54349L28.4941 5.45651ZM26.9204 9.14068C26.4576 10.5921 26.0987 12.1512 25.8356 13.8103L31.7616 14.7497C31.9839 13.3475 32.2783 12.0879 32.6369 10.9633L26.9204 9.14068ZM29.9426 17.0533C31.895 16.2479 33.5447 15.0068 34.649 13.2342L29.5563 10.0618C29.2418 10.5665 28.6889 11.08 27.6546 11.5067L29.9426 17.0533ZM34.649 13.2342C35.7387 11.485 36.1666 9.42157 36.1666 7.252H30.1666C30.1666 8.66643 29.8853 9.53369 29.5563 10.0618L34.649 13.2342ZM36.1666 7.252C36.1666 6.52896 36.0498 5.56902 35.4976 4.6717L30.3877 7.8163C30.2553 7.60128 30.2026 7.42098 30.1821 7.32879C30.1619 7.23827 30.1666 7.20493 30.1666 7.252H36.1666ZM35.4976 4.67171C34.9722 3.81789 33.936 2.88 32.3826 2.88V8.88C31.918 8.88 31.4521 8.74403 31.0557 8.48633C30.6871 8.24678 30.483 7.97125 30.3877 7.81629L35.4976 4.67171ZM40.3359 34.468L41.7672 31.8314L41.7582 31.8266L40.3359 34.468ZM35.9119 30.184L33.2793 31.6225L33.285 31.6329L33.2907 31.6432L35.9119 30.184ZM36.2199 15.904L33.5095 14.618L33.5057 14.6261L33.5019 14.6343L36.2199 15.904ZM41.6239 9.688L39.9733 7.18291L39.9643 7.18885L41.6239 9.688ZM55.7919 8.456L57.0953 5.75392H57.0953L55.7919 8.456ZM59.5159 11.872L56.9351 13.4014L56.9392 13.4085L56.9435 13.4155L59.5159 11.872ZM59.7399 23.016L57.0088 21.7746L57.003 21.7875L56.9972 21.8005L59.7399 23.016ZM56.8559 26.824L58.6498 29.2286L58.6559 29.224L56.8559 26.824ZM49.4639 25.788L52.2892 24.779L49.8905 18.0627L46.767 24.4741L49.4639 25.788ZM48.0079 27.524L49.7075 29.9961L49.7154 29.9907L49.7233 29.9852L48.0079 27.524ZM43.0239 26.908L40.7067 28.8133L40.7297 28.8414L40.7535 28.8689L43.0239 26.908ZM43.0239 19.348L45.6844 20.7344L45.6883 20.7268L45.6922 20.7192L43.0239 19.348ZM45.7679 16.128L47.4964 18.58L47.5042 18.5745L45.7679 16.128ZM50.2479 15.148L47.8799 16.9898L47.9946 17.1373L48.1266 17.2693L50.2479 15.148ZM50.6119 15.988L47.6865 16.6529L48.3284 19.4769L51.1733 18.935L50.6119 15.988ZM52.7959 19.656L55.7377 20.2443L55.7406 20.23L55.7433 20.2156L52.7959 19.656ZM55.3719 24.192L57.5513 26.2536L57.5651 26.2391L57.5786 26.2244L55.3719 24.192ZM56.9959 21.308L54.1766 20.2828L54.1721 20.295L54.1678 20.3073L56.9959 21.308ZM55.5959 12.152L53.6359 14.4232L53.6435 14.4298L53.6512 14.4363L55.5959 12.152ZM43.4439 12.264L41.727 9.8039L43.4439 12.264ZM39.4119 17.248L42.1616 18.4478L42.1655 18.4387L39.4119 17.248ZM40.4199 30.548L38.2499 32.6194L38.2504 32.62L40.4199 30.548ZM51.8719 32.452L51.1177 29.5483L51.0953 29.5542L51.0729 29.5604L51.8719 32.452ZM56.3239 30.688L57.7172 33.3449L57.7317 33.3372L57.7462 33.3294L56.3239 30.688ZM57.9479 30.912L60.2763 29.0202L60.2462 28.9832L60.215 28.9472L57.9479 30.912ZM58.0879 32.816L55.4832 31.3276L55.4615 31.3656L55.4409 31.4042L58.0879 32.816ZM57.3879 33.516L55.8669 30.9302L55.8451 30.943L55.8236 30.9562L57.3879 33.516ZM52.7119 35.392L52.006 32.4762L51.9879 32.4806L51.9698 32.4852L52.7119 35.392ZM47.9799 24.584L45.6021 22.7549V22.7549L47.9799 24.584ZM48.7919 22.652L51.7283 23.2666L51.7307 23.255L51.7331 23.2434L48.7919 22.652ZM49.8279 17.5L52.7691 18.0914L53.509 14.4115L49.7565 14.5008L49.8279 17.5ZM47.6439 18.396L49.5963 20.6738L49.6015 20.6693L47.6439 18.396ZM46.0759 20.636L48.8419 21.7977L46.0759 20.636ZM45.8239 24.892L43.4813 26.7661L43.5182 26.8122L43.5569 26.8568L45.8239 24.892ZM47.4479 33.064C45.045 33.064 43.1922 32.605 41.7672 31.8314L38.9047 37.1046C41.3997 38.459 44.2882 39.064 47.4479 39.064V33.064ZM41.7582 31.8266C40.2874 31.0346 39.2445 30.0025 38.5331 28.7248L33.2907 31.6432C34.5954 33.9868 36.5018 35.8107 38.9136 37.1094L41.7582 31.8266ZM38.5446 28.7455C37.8166 27.4132 37.4279 25.8895 37.4279 24.108H31.4279C31.4279 26.8065 32.0286 29.3335 33.2793 31.6225L38.5446 28.7455ZM37.4279 24.108C37.4279 21.6205 37.935 19.3208 38.938 17.1737L33.5019 14.6343C32.1156 17.6019 31.4279 20.7715 31.4279 24.108H37.4279ZM38.9303 17.19C39.9068 15.1318 41.3418 13.4766 43.2835 12.1871L39.9643 7.18885C37.1274 9.07275 34.9597 11.5615 33.5095 14.618L38.9303 17.19ZM43.2746 12.1931C45.1133 10.9815 47.4092 10.308 50.3039 10.308V4.308C46.4413 4.308 42.9506 5.22113 39.9733 7.18292L43.2746 12.1931ZM50.3039 10.308C52.0036 10.308 53.374 10.6205 54.4886 11.1581L57.0953 5.75392C55.0365 4.76085 52.7483 4.308 50.3039 4.308V10.308ZM54.4886 11.1581C55.5446 11.6674 56.3409 12.3988 56.9351 13.4014L62.0968 10.3426C60.899 8.32121 59.2126 6.77523 57.0953 5.75392L54.4886 11.1581ZM56.9435 13.4155C57.5013 14.3452 57.8599 15.6031 57.8599 17.332H63.8599C63.8599 14.7676 63.3226 12.3854 62.0884 10.3285L56.9435 13.4155ZM57.8599 17.332C57.8599 19.1305 57.5479 20.5887 57.0088 21.7746L62.471 24.2574C63.4253 22.158 63.8599 19.8268 63.8599 17.332H57.8599ZM56.9972 21.8005C56.4349 23.0693 55.7644 23.8926 55.0559 24.424L58.6559 29.224C60.3368 27.9634 61.589 26.2481 62.4827 24.2315L56.9972 21.8005ZM55.062 24.4194C54.329 24.9663 53.7134 25.14 53.1599 25.14V31.14C55.1824 31.14 57.0309 30.4363 58.6498 29.2286L55.062 24.4194ZM53.1599 25.14C52.6081 25.14 52.4272 25.0265 52.4186 25.021C52.4129 25.0174 52.4085 25.0149 52.3962 24.9989C52.3812 24.9792 52.3383 24.9165 52.2892 24.779L46.6387 26.797C47.1101 28.1169 47.9409 29.2835 49.1973 30.083C50.4207 30.8615 51.8078 31.14 53.1599 31.14V25.14ZM46.767 24.4741C46.6182 24.7794 46.4562 24.9487 46.2926 25.0628L49.7233 29.9852C50.7916 29.2406 51.6003 28.2526 52.1609 27.1019L46.767 24.4741ZM46.3084 25.0519C46.2398 25.099 46.1582 25.14 45.9639 25.14V31.14C47.3004 31.14 48.5814 30.7703 49.7075 29.9961L46.3084 25.0519ZM45.9639 25.14C45.4376 25.14 45.344 25.0046 45.2944 24.9471L40.7535 28.8689C42.1225 30.4541 43.989 31.14 45.9639 31.14V25.14ZM45.3412 25.0027C45.2001 24.8311 44.9879 24.4541 44.9879 23.576H38.9879C38.9879 25.4605 39.4664 27.3049 40.7067 28.8133L45.3412 25.0027ZM44.9879 23.576C44.9879 22.5658 45.2166 21.632 45.6844 20.7344L40.3635 17.9616C39.4499 19.7147 38.9879 21.5995 38.9879 23.576H44.9879ZM45.6922 20.7192C46.1807 19.7688 46.7866 19.0804 47.4964 18.58L44.0395 13.676C42.4719 14.781 41.2486 16.2392 40.3556 17.9768L45.6922 20.7192ZM47.5042 18.5745C48.2083 18.0748 48.8333 17.896 49.4359 17.896V11.896C47.4625 11.896 45.6422 12.5385 44.0317 13.6815L47.5042 18.5745ZM49.4359 17.896C49.4625 17.896 49.3079 17.9018 49.0577 17.8242C48.7985 17.7437 48.298 17.5274 47.8799 16.9898L52.616 13.3062C51.5639 11.9534 49.9819 11.896 49.4359 11.896V17.896ZM48.1266 17.2693C47.8436 16.9863 47.7265 16.7281 47.6983 16.6628C47.6633 16.5822 47.6667 16.5657 47.6865 16.6529L53.5373 15.3231C53.4212 14.8123 53.1529 13.8103 52.3693 13.0267L48.1266 17.2693ZM51.1733 18.935C51.3669 18.8981 51.5888 18.876 51.8439 18.876V12.876C51.2404 12.876 50.641 12.9285 50.0506 13.041L51.1733 18.935ZM51.8439 18.876C52.0347 18.876 51.6391 18.9264 51.1292 18.5622C50.8403 18.3558 50.5818 18.0605 50.4116 17.6959C50.2489 17.3472 50.2159 17.0413 50.2159 16.856H56.2159C56.2159 15.7408 55.7698 14.5035 54.6167 13.6798C53.6495 12.9889 52.5678 12.876 51.8439 12.876V18.876ZM50.2159 16.856C50.2159 16.805 50.2141 16.9382 50.1441 17.405C50.0822 17.8178 49.985 18.3778 49.8486 19.0964L55.7433 20.2156C56.005 18.8373 56.2159 17.5922 56.2159 16.856H50.2159ZM49.8542 19.0677C49.4286 21.1957 49.1519 22.9608 49.1519 24.136H55.1519C55.1519 23.6312 55.3046 22.4096 55.7377 20.2443L49.8542 19.0677ZM49.1519 24.136C49.1519 25.1677 49.5157 26.2184 50.3386 27.0413L54.5813 22.7987C54.7601 22.9775 54.9165 23.2065 55.0212 23.473C55.1238 23.7343 55.1519 23.9678 55.1519 24.136H49.1519ZM50.3386 27.0413C51.3663 28.069 52.6696 28.228 53.4679 28.228V22.228C53.4405 22.228 53.5508 22.2233 53.7426 22.2819C53.9466 22.3443 54.2708 22.4882 54.5813 22.7987L50.3386 27.0413ZM53.4679 28.228C55.2649 28.228 56.6347 27.2226 57.5513 26.2536L53.1925 22.1304C53.109 22.2187 53.046 22.2748 53.0052 22.3076C52.9643 22.3405 52.9528 22.3443 52.9721 22.3338C52.9923 22.3229 53.047 22.2957 53.135 22.2715C53.2249 22.2466 53.3382 22.228 53.4679 22.228V28.228ZM57.5786 26.2244C58.5821 25.1349 59.3023 23.7833 59.8241 22.3087L54.1678 20.3073C53.8309 21.2593 53.4685 21.8304 53.1653 22.1596L57.5786 26.2244ZM59.8153 22.3332C60.3953 20.7383 60.6679 19.0432 60.6679 17.276H54.6679C54.6679 18.4208 54.4926 19.4137 54.1766 20.2828L59.8153 22.3332ZM60.6679 17.276C60.6679 14.3815 59.7456 11.7449 57.5407 9.8677L53.6512 14.4363C54.2089 14.9111 54.6679 15.6905 54.6679 17.276H60.6679ZM57.556 9.88083C55.4916 8.09925 52.8383 7.388 49.9679 7.388V13.388C51.8763 13.388 52.9749 13.8528 53.6359 14.4232L57.556 9.88083ZM49.9679 7.388C46.904 7.388 44.104 8.14492 41.727 9.8039L45.1609 14.7241C46.3678 13.8817 47.9172 13.388 49.9679 13.388V7.388ZM41.727 9.8039C39.4627 11.3842 37.7677 13.4919 36.6584 16.0573L42.1655 18.4387C42.8482 16.8601 43.8411 15.6452 45.1609 14.7241L41.727 9.8039ZM36.6623 16.0482C35.5878 18.5105 35.0679 21.1631 35.0679 23.968H41.0679C41.0679 21.9195 41.444 20.0921 42.1616 18.4478L36.6623 16.0482ZM35.0679 23.968C35.0679 27.3131 36.0421 30.3065 38.2499 32.6194L42.59 28.4766C41.6618 27.5042 41.0679 26.1109 41.0679 23.968H35.0679ZM38.2504 32.62C40.5921 35.0718 43.8881 36.04 47.5599 36.04V30.04C44.8851 30.04 43.4212 29.3468 42.5895 28.476L38.2504 32.62ZM47.5599 36.04C49.2889 36.04 50.9949 35.8068 52.6709 35.3436L51.0729 29.5604C49.9117 29.8812 48.743 30.04 47.5599 30.04V36.04ZM52.6261 35.3557C54.3178 34.9162 56.0158 34.237 57.7172 33.3449L54.9307 28.0311C53.5707 28.7443 52.3007 29.2411 51.1177 29.5483L52.6261 35.3557ZM57.7462 33.3294C57.6512 33.3806 57.3983 33.492 57.0239 33.492V27.492C56.2016 27.492 55.482 27.7341 54.9016 28.0466L57.7462 33.3294ZM57.0239 33.492C56.827 33.492 56.5681 33.4529 56.2935 33.3281C56.0183 33.203 55.8151 33.0317 55.6809 32.8768L60.215 28.9472C59.3976 28.004 58.2597 27.492 57.0239 27.492V33.492ZM55.6196 32.8038C55.524 32.6861 55.4393 32.5392 55.3824 32.3731C55.3264 32.2094 55.3119 32.0696 55.3119 31.976H61.3119C61.3119 30.9261 60.9838 29.891 60.2763 29.0202L55.6196 32.8038ZM55.3119 31.976C55.3119 31.8724 55.3253 31.7568 55.3572 31.637C55.3891 31.5173 55.4344 31.413 55.4832 31.3276L60.6927 34.3044C61.0989 33.5935 61.3119 32.801 61.3119 31.976H55.3119ZM55.4409 31.4042C55.5909 31.1229 55.7855 30.9781 55.8669 30.9302L58.909 36.1018C59.6251 35.6806 60.2863 35.0691 60.735 34.2278L55.4409 31.4042ZM55.8236 30.9562C54.7838 31.5916 53.5234 32.1089 52.006 32.4762L53.4179 38.3078C55.4472 37.8165 57.3041 37.0831 58.9523 36.0758L55.8236 30.9562ZM51.9698 32.4852C50.4498 32.8733 48.9444 33.064 47.4479 33.064V39.064C49.4608 39.064 51.4647 38.8067 53.4541 38.2988L51.9698 32.4852ZM46.8039 28.312C48.5344 28.312 49.705 27.2617 50.3578 26.4131L45.6021 22.7549C45.5678 22.7994 45.6327 22.6994 45.8269 22.5792C46.0454 22.4439 46.385 22.312 46.8039 22.312V28.312ZM50.3578 26.4131C51.0832 25.4702 51.4977 24.3683 51.7283 23.2666L45.8556 22.0374C45.7501 22.5411 45.6234 22.7272 45.6021 22.7549L50.3578 26.4131ZM51.7331 23.2434L52.7691 18.0914L46.8868 16.9086L45.8508 22.0606L51.7331 23.2434ZM49.7565 14.5008C48.1884 14.5382 46.8114 15.1539 45.6864 16.1227L49.6015 20.6693C49.7239 20.5639 49.802 20.5261 49.8326 20.5135C49.8587 20.5028 49.875 20.4997 49.8993 20.4991L49.7565 14.5008ZM45.6916 16.1182C44.6265 17.0311 43.8509 18.1863 43.31 19.4743L48.8419 21.7977C49.0849 21.219 49.3547 20.8809 49.5963 20.6738L45.6916 16.1182ZM43.31 19.4743C42.7584 20.7875 42.4879 22.173 42.4879 23.604H48.4879C48.4879 22.9443 48.6094 22.3511 48.8419 21.7977L43.31 19.4743ZM42.4879 23.604C42.4879 24.4751 42.6399 25.7143 43.4813 26.7661L48.1665 23.0179C48.3722 23.275 48.449 23.5041 48.4748 23.6027C48.4994 23.697 48.4879 23.7106 48.4879 23.604H42.4879ZM43.5569 26.8568C44.4352 27.8702 45.629 28.312 46.8039 28.312V22.312C46.9422 22.312 47.169 22.3366 47.4327 22.4496C47.7043 22.566 47.9282 22.7393 48.091 22.9272L43.5569 26.8568ZM64.7207 12.572L62.6517 14.7444L62.6795 14.7709L62.7079 14.7966L64.7207 12.572ZM64.8887 9.408L66.8341 11.6917L66.841 11.6858L64.8887 9.408ZM68.5007 9.24L66.6517 11.6025L68.5007 9.24ZM68.4167 12.46L70.4044 14.707L70.4282 14.6859L70.4515 14.6644L68.4167 12.46ZM63.6007 26.852L61.0629 28.4519L61.0752 28.4715L61.0878 28.4908L63.6007 26.852ZM63.0967 20.216L60.1386 19.716L60.1357 19.7332L60.133 19.7503L63.0967 20.216ZM63.9367 16.52L66.814 17.3691L66.8194 17.3507L66.8246 17.3322L63.9367 16.52ZM66.8487 19.152L69.7797 19.7915L69.7826 19.7783L69.7853 19.7652L66.8487 19.152ZM68.4167 24.36L66.3784 22.1587L68.4167 24.36ZM70.4327 22.148L68.1549 20.1956L68.1413 20.2114L68.128 20.2274L70.4327 22.148ZM71.7487 22.092L69.1573 23.6036L69.2026 23.6813L69.2525 23.7561L71.7487 22.092ZM71.4407 24.752L69.1702 22.7911L69.1441 22.8214L69.1188 22.8523L71.4407 24.752ZM66.4847 10.104C66.3093 10.104 66.2698 10.0831 66.3219 10.0988C66.3848 10.1177 66.5506 10.182 66.7334 10.3474L62.7079 14.7966C63.866 15.8444 65.3083 16.104 66.4847 16.104V10.104ZM66.7896 10.3996C66.9222 10.5259 67.0234 10.6826 67.0823 10.8369C67.1369 10.9798 67.1327 11.0605 67.1327 11.032H61.1327C61.1327 12.3235 61.5446 13.69 62.6517 14.7444L66.7896 10.3996ZM67.1327 11.032C67.1327 11.1011 67.1168 11.2401 67.0414 11.4021C66.9665 11.563 66.8743 11.6574 66.8341 11.6917L62.9433 7.12427C61.7805 8.1148 61.1327 9.48621 61.1327 11.032H67.1327ZM66.841 11.6858C66.8335 11.6922 66.8199 11.7026 66.8008 11.7136C66.7816 11.7246 66.7635 11.7325 66.7492 11.7375C66.7353 11.7423 66.7311 11.7423 66.7403 11.7408C66.75 11.7393 66.7757 11.736 66.8207 11.736V5.736C65.4249 5.736 64.0644 6.16328 62.9363 7.13023L66.841 11.6858ZM66.8207 11.736C66.9254 11.736 66.9416 11.749 66.8966 11.7355C66.8448 11.7199 66.7521 11.681 66.6517 11.6025L70.3496 6.87748C69.2653 6.02889 67.9998 5.736 66.8207 5.736V11.736ZM66.6517 11.6025C66.5015 11.485 66.35 11.3066 66.2489 11.0823C66.1528 10.8693 66.1447 10.7097 66.1447 10.668H72.1447C72.1447 9.26558 71.6064 7.86106 70.3496 6.87748L66.6517 11.6025ZM66.1447 10.668C66.1447 10.7147 66.1378 10.6589 66.1833 10.5469C66.2321 10.4265 66.3084 10.3234 66.3818 10.2556L70.4515 14.6644C71.6354 13.5715 72.1447 12.1313 72.1447 10.668H66.1447ZM66.4289 10.213C66.4625 10.1833 66.4994 10.157 66.5368 10.1357C66.5739 10.1146 66.6036 10.1027 66.621 10.097C66.6548 10.0857 66.6208 10.104 66.4847 10.104V16.104C67.8377 16.104 69.2482 15.7298 70.4044 14.707L66.4289 10.213ZM66.2607 25.14C66.0041 25.14 65.9455 25.0948 65.9931 25.1179C66.0163 25.1291 66.0472 25.1485 66.0768 25.1749C66.1058 25.2007 66.1168 25.2182 66.1135 25.2132L61.0878 28.4908C62.3099 30.3647 64.2492 31.14 66.2607 31.14V25.14ZM66.1384 25.2521C65.9965 25.027 65.7887 24.5042 65.7887 23.436H59.7887C59.7887 25.2051 60.1221 26.9597 61.0629 28.4519L66.1384 25.2521ZM65.7887 23.436C65.7887 22.8141 65.8671 21.9111 66.0603 20.6817L60.133 19.7503C59.9155 21.1342 59.7887 22.3779 59.7887 23.436H65.7887ZM66.0547 20.716C66.2613 19.4934 66.5159 18.3793 66.814 17.3691L61.0593 15.6709C60.6854 16.9381 60.38 18.288 60.1386 19.716L66.0547 20.716ZM66.8246 17.3322C66.8661 17.1848 66.8887 17.1559 66.8643 17.2006C66.8411 17.2432 66.7326 17.4308 66.4827 17.6306L62.7346 12.9454C61.7215 13.7559 61.276 14.8996 61.0487 15.7078L66.8246 17.3322ZM66.4827 17.6306C66.2036 17.8539 65.9609 17.9268 65.8823 17.9464C65.8044 17.9659 65.8139 17.952 65.9527 17.952V11.952C65.0981 11.952 63.8117 12.0837 62.7346 12.9454L66.4827 17.6306ZM65.9527 17.952C66.1901 17.952 65.8435 18.0088 65.3596 17.6861C65.0778 17.4983 64.7995 17.212 64.6081 16.8291C64.4229 16.4587 64.3807 16.1221 64.3807 15.904H70.3807C70.3807 14.7127 69.8624 13.4769 68.6878 12.6938C67.7278 12.0539 66.6672 11.952 65.9527 11.952V17.952ZM64.3807 15.904C64.3807 15.8698 64.3751 16.0441 64.2871 16.5811C64.2083 17.0623 64.0849 17.7107 63.912 18.5388L69.7853 19.7652C70.1192 18.1659 70.3807 16.7468 70.3807 15.904H64.3807ZM63.9176 18.5125C63.4795 20.5206 63.1767 22.2217 63.1767 23.324H69.1767C69.1767 22.9703 69.3218 21.8901 69.7797 19.7915L63.9176 18.5125ZM63.1767 23.324C63.1767 24.0738 63.2641 25.047 63.7174 25.9536L69.0839 23.2704C69.1299 23.3624 69.156 23.4358 69.17 23.4812C69.1771 23.5045 69.1817 23.5222 69.1844 23.5338C69.1871 23.5453 69.1882 23.5516 69.1883 23.552C69.1883 23.5521 69.1852 23.5337 69.1822 23.4937C69.1792 23.454 69.1767 23.3981 69.1767 23.324H63.1767ZM63.7174 25.9536C64.0127 26.5442 64.4839 27.1209 65.1722 27.5289C65.85 27.9305 66.5546 28.06 67.1567 28.06V22.06C67.404 22.06 67.8053 22.1148 68.2311 22.3671C68.6674 22.6257 68.938 22.9785 69.0839 23.2704L63.7174 25.9536ZM67.1567 28.06C68.723 28.06 69.888 27.0862 70.4549 26.5613L66.3784 22.1587C66.2341 22.2924 66.1984 22.3005 66.2667 22.2625C66.3223 22.2316 66.6423 22.06 67.1567 22.06V28.06ZM70.4549 26.5613C71.1038 25.9604 71.8746 25.1038 72.7373 24.0686L68.128 20.2274C67.3107 21.2082 66.7375 21.8262 66.3784 22.1587L70.4549 26.5613ZM72.7104 24.1004C72.6237 24.2015 72.4507 24.3721 72.1706 24.5173C71.876 24.67 71.5362 24.756 71.1887 24.756V18.756C69.8355 18.756 68.8065 19.4354 68.1549 20.1956L72.7104 24.1004ZM71.1887 24.756C70.8303 24.756 70.3921 24.6674 69.9672 24.4125C69.5517 24.1632 69.2978 23.8444 69.1573 23.6036L74.34 20.5804C73.7167 19.5119 72.5848 18.756 71.1887 18.756V24.756ZM69.2525 23.7561C68.9552 23.3102 68.9727 22.9599 68.9727 23.016H74.9727C74.9727 22.2881 74.8407 21.3218 74.2448 20.4279L69.2525 23.7561ZM68.9727 23.016C68.9727 23.1581 68.9551 23.1839 68.9713 23.131C68.9906 23.0682 69.0455 22.9356 69.1702 22.7911L73.7111 26.7129C74.6874 25.5824 74.9727 24.212 74.9727 23.016H68.9727ZM69.1188 22.8523C67.4035 24.9488 66.4502 25.14 66.2607 25.14V31.14C69.2818 31.14 71.7818 29.0725 73.7625 26.6517L69.1188 22.8523ZM82.0553 19.236L79.8667 21.2878L79.9329 21.3584L80.0035 21.4246L82.0553 19.236ZM82.3353 21.084L85.0889 22.2747L85.1053 22.2367L85.1207 22.1982L82.3353 21.084ZM81.0753 22.82L83.0341 25.0922V25.0922L81.0753 22.82ZM77.9393 22.96L75.7643 25.0262L75.7908 25.0541L75.818 25.0813L77.9393 22.96ZM77.4633 20.3L74.4865 19.9279L74.4802 19.9781L74.4756 20.0284L77.4633 20.3ZM77.4073 19.348L75.0073 21.148L75.1352 21.3186L75.286 21.4693L77.4073 19.348ZM76.1193 20.188L78.5455 21.9525L78.558 21.9354L78.5702 21.918L76.1193 20.188ZM74.7753 22.652L72.0257 21.4522L74.7753 22.652ZM73.6833 25.9L70.7701 25.1836L70.7644 25.2067L70.7591 25.2299L73.6833 25.9ZM72.9833 27.692L70.7255 25.7165L72.9833 27.692ZM70.1833 27.02L67.3743 28.0734L67.3857 28.1039L67.3979 28.1342L70.1833 27.02ZM70.7993 16.52L73.6597 17.4246L73.6621 17.4169L73.6645 17.4092L70.7993 16.52ZM71.6113 15.344L73.2462 17.8593L73.2609 17.8498L73.2754 17.8402L71.6113 15.344ZM73.8233 17.64L70.9254 16.8638L70.9189 16.888L70.9129 16.9124L73.8233 17.64ZM73.3753 19.6L70.4335 19.0117L73.3753 19.6ZM73.0953 21.672L70.1076 21.4004L75.8962 22.7468L73.0953 21.672ZM75.1673 17.752L72.7779 15.9379H72.7779L75.1673 17.752ZM80.6273 15.428L78.3778 17.4129L78.4397 17.4831L78.506 17.5493L80.6273 15.428ZM80.7673 18.788L77.8299 18.1784L77.0807 21.788H80.7673V18.788ZM81.0193 21.788C80.8528 21.788 80.632 21.7558 80.3955 21.6536C80.1589 21.5512 79.9827 21.4116 79.8667 21.2878L84.2439 17.1842C83.3947 16.2784 82.2562 15.788 81.0193 15.788V21.788ZM80.0035 21.4246C79.8658 21.2956 79.7252 21.1109 79.6264 20.8762C79.5289 20.6446 79.5033 20.4389 79.5033 20.3H85.5033C85.5033 19.0869 85.0431 17.9249 84.1071 17.0474L80.0035 21.4246ZM79.5033 20.3C79.5033 20.0807 79.5533 19.9611 79.5499 19.9698L85.1207 22.1982C85.3412 21.6469 85.5033 21.0046 85.5033 20.3H79.5033ZM79.5817 19.8933C79.4531 20.1906 79.2965 20.3926 79.1165 20.5478L83.0341 25.0922C83.9368 24.3141 84.6201 23.3588 85.0889 22.2747L79.5817 19.8933ZM79.1165 20.5478C79.074 20.5844 79.0777 20.5709 79.1297 20.5506C79.1542 20.5411 79.1825 20.5327 79.2126 20.5271C79.2425 20.5215 79.267 20.52 79.2833 20.52V26.52C80.7252 26.52 82.0032 25.9809 83.0341 25.0922L79.1165 20.5478ZM79.2833 20.52C79.3873 20.52 79.5401 20.5404 79.7091 20.6108C79.8775 20.6809 79.9947 20.7728 80.0606 20.8387L75.818 25.0813C76.7475 26.0108 77.9559 26.52 79.2833 26.52V20.52ZM80.1143 20.8938C80.2393 21.0254 80.3239 21.1746 80.3702 21.3063C80.413 21.4279 80.4073 21.4883 80.4073 21.448H74.4073C74.4073 22.6634 74.7631 23.9724 75.7643 25.0262L80.1143 20.8938ZM80.4073 21.448C80.4073 21.1972 80.4206 20.9061 80.451 20.5716L74.4756 20.0284C74.4313 20.5152 74.4073 20.9895 74.4073 21.448H80.4073ZM80.4401 20.6721C80.4755 20.3892 80.5193 20.0084 80.5193 19.684H74.5193C74.5193 19.6573 74.5198 19.6377 74.5202 19.627C74.5206 19.6159 74.5209 19.6097 74.521 19.6093C74.521 19.6088 74.5208 19.6119 74.5202 19.6193C74.5197 19.6266 74.5188 19.6368 74.5176 19.6504C74.5124 19.7081 74.5026 19.7983 74.4865 19.9279L80.4401 20.6721ZM80.5193 19.684C80.5193 19.0722 80.3643 18.0624 79.5286 17.2267L75.286 21.4693C74.5996 20.7829 74.5193 19.9971 74.5193 19.684H80.5193ZM79.8073 17.548C79.1847 16.7179 78.2209 16.236 77.1833 16.236V22.236C76.8198 22.236 76.3939 22.1604 75.9676 21.9473C75.5414 21.7342 75.2254 21.4388 75.0073 21.148L79.8073 17.548ZM77.1833 16.236C75.9099 16.236 75.0445 16.9488 74.7209 17.2383C74.3028 17.6124 73.952 18.0561 73.6684 18.4579L78.5702 21.918C78.7345 21.6852 78.7851 21.6529 78.7217 21.7097C78.6858 21.7418 78.5594 21.8513 78.3437 21.9624C78.1286 22.0732 77.7258 22.236 77.1833 22.236V16.236ZM73.6931 18.4235C73.0726 19.2766 72.524 20.31 72.0257 21.4522L77.5249 23.8518C77.9225 22.9406 78.2699 22.3314 78.5455 21.9525L73.6931 18.4235ZM72.0257 21.4522C71.5064 22.6422 71.0889 23.8872 70.7701 25.1836L76.5965 26.6164C76.8377 25.6355 77.1482 24.7152 77.5249 23.8518L72.0257 21.4522ZM70.7591 25.2299C70.6765 25.5903 70.6056 25.8115 70.5599 25.9284C70.5382 25.984 70.5321 25.9903 70.5477 25.962C70.5615 25.9371 70.6158 25.8419 70.7255 25.7165L75.241 29.6675C76.0458 28.7478 76.4012 27.4705 76.6075 26.5701L70.7591 25.2299ZM70.7255 25.7165C71.2709 25.0932 71.868 25.14 71.6953 25.14V31.14C72.7172 31.14 74.173 30.8881 75.241 29.6675L70.7255 25.7165ZM71.6953 25.14C71.8956 25.14 72.2398 25.204 72.571 25.4493C72.7191 25.5591 72.8206 25.6736 72.8842 25.7624C72.9458 25.8483 72.9682 25.9045 72.9687 25.9058L67.3979 28.1342C67.6963 28.8804 68.1907 29.6715 68.9996 30.2707C69.8348 30.8893 70.7856 31.14 71.6953 31.14V25.14ZM72.9923 25.9666C72.9126 25.7541 72.7633 25.0179 72.7633 23.436H66.7633C66.7633 25.1395 66.894 26.7925 67.3743 28.0734L72.9923 25.9666ZM72.7633 23.436C72.7633 21.2979 73.0669 19.299 73.6597 17.4246L67.9389 15.6154C67.1503 18.109 66.7633 20.7207 66.7633 23.436H72.7633ZM73.6645 17.4092C73.675 17.3754 73.6635 17.4282 73.597 17.5246C73.5256 17.6279 73.4101 17.7528 73.2462 17.8593L69.9763 12.8287C68.8703 13.5476 68.2518 14.6071 67.9341 15.6308L73.6645 17.4092ZM73.2754 17.8402C73.1305 17.9367 73.0259 17.9637 73.0152 17.9662C73.0097 17.9676 73.0239 17.9638 73.0617 17.9598C73.0994 17.9558 73.1565 17.952 73.2353 17.952V11.952C72.2136 11.952 71.0119 12.1381 69.9472 12.8478L73.2754 17.8402ZM73.2353 17.952C73.3103 17.952 73.2814 17.9577 73.1839 17.9403C73.1314 17.9309 73.0383 17.9112 72.9183 17.8703C72.7997 17.8299 72.6261 17.759 72.4293 17.636L75.6093 12.548C74.6865 11.9712 73.6684 11.952 73.2353 11.952V17.952ZM72.4293 17.636C71.9306 17.3243 71.6017 16.8851 71.4224 16.4592C71.2597 16.0728 71.2433 15.7586 71.2433 15.624H77.2433C77.2433 14.867 77.0117 13.4245 75.6093 12.548L72.4293 17.636ZM71.2433 15.624C71.2433 15.494 71.256 15.4327 71.2478 15.4897C71.2418 15.5307 71.2282 15.611 71.2013 15.7401C71.1474 15.9991 71.0581 16.3684 70.9254 16.8638L76.7211 18.4162C76.8684 17.8662 76.9892 17.3769 77.0752 16.9639C77.1474 16.6176 77.2433 16.1098 77.2433 15.624H71.2433ZM70.9129 16.9124C70.7183 17.6905 70.5574 18.3922 70.4335 19.0117L76.317 20.1883C76.4171 19.6878 76.5549 19.0828 76.7337 18.3676L70.9129 16.9124ZM70.4335 19.0117C70.2937 19.711 70.1881 20.515 70.1076 21.4004L76.083 21.9436C76.1518 21.1864 76.2329 20.609 76.317 20.1883L70.4335 19.0117ZM75.8962 22.7468C76.4443 21.3182 77.0116 20.284 77.5566 19.5661L72.7779 15.9379C71.7923 17.236 70.9782 18.8151 70.2944 20.5972L75.8962 22.7468ZM77.5566 19.5661C78.1924 18.7288 78.6628 18.3384 78.9312 18.1801L75.8833 13.0119C74.6958 13.7123 73.6728 14.7592 72.7779 15.9379L77.5566 19.5661ZM78.9312 18.1801C79.1445 18.0543 79.2913 17.994 79.3748 17.967C79.456 17.9407 79.4577 17.952 79.3953 17.952V11.952C78.0844 11.952 76.8914 12.4174 75.8833 13.0119L78.9312 18.1801ZM79.3953 17.952C79.3783 17.952 79.2368 17.95 79.0281 17.8694C78.8031 17.7824 78.5693 17.6299 78.3778 17.4129L82.8768 13.4431C81.8769 12.3099 80.5404 11.952 79.3953 11.952V17.952ZM78.506 17.5493C78.0436 17.0869 78.0753 16.6371 78.0753 16.772H84.0753C84.0753 15.7122 83.8083 14.3664 82.7486 13.3067L78.506 17.5493ZM78.0753 16.772C78.0753 16.717 78.0779 16.7934 78.0327 17.0889C77.9922 17.354 77.9264 17.7133 77.8299 18.1784L83.7047 19.3976C83.9017 18.4483 84.0753 17.482 84.0753 16.772H78.0753ZM80.7673 21.788H81.0193V15.788H80.7673V21.788Z" fill="#151515"/>
</svg>
