<svg width="300" height="120" viewBox="0 0 143 63" fill="none" xmlns="http://www.w3.org/2000/svg">
    <mask id="path-1-outside-1" maskUnits="userSpaceOnUse" x="0.255981" y="0.903992" width="300" height="120"
          fill="black">
        <rect fill="white" x="0.255981" y="0.903992" width="300" height="120"/>
        <path d="M9.59198 20.464C8.24798 20.464 7.23998 20.16 6.56798 19.552C5.89598 18.912 5.55998 18.032 5.55998 16.912C5.55998 15.792 5.99198 14.864 6.85598 14.128C7.75198 13.36 8.85598 12.976 10.168 12.976C11.352 12.976 12.312 13.264 13.048 13.84C13.784 14.416 14.152 15.232 14.152 16.288C14.152 17.568 13.736 18.592 12.904 19.36C12.072 20.096 10.968 20.464 9.59198 20.464ZM9.20798 46.24C7.12798 46.24 5.60798 45.504 4.64798 44.032C3.71998 42.56 3.25598 40.608 3.25598 38.176C3.25598 36.736 3.43198 34.896 3.78398 32.656C4.16798 30.384 4.64798 28.272 5.22398 26.32C5.51198 25.296 5.89598 24.592 6.37598 24.208C6.85598 23.824 7.62398 23.632 8.67998 23.632C10.312 23.632 11.128 24.176 11.128 25.264C11.128 26.064 10.824 27.92 10.216 30.832C9.44798 34.352 9.06398 36.736 9.06398 37.984C9.06398 38.944 9.19198 39.68 9.44798 40.192C9.70398 40.704 10.136 40.96 10.744 40.96C11.32 40.96 12.04 40.56 12.904 39.76C13.768 38.96 14.92 37.696 16.36 35.968C16.744 35.52 17.176 35.296 17.656 35.296C18.072 35.296 18.392 35.488 18.616 35.872C18.872 36.256 19 36.784 19 37.456C19 38.736 18.696 39.728 18.088 40.432C14.92 44.304 11.96 46.24 9.20798 46.24ZM59.5645 35.296C59.9805 35.296 60.3005 35.488 60.5245 35.872C60.7805 36.256 60.9085 36.784 60.9085 37.456C60.9085 38.704 60.6045 39.696 59.9965 40.432C56.8285 44.304 53.4525 46.24 49.8685 46.24C46.7645 46.24 44.2845 45.04 42.4285 42.64C40.5725 40.24 39.6445 36.8 39.6445 32.32C39.6445 31.232 39.6925 30.144 39.7885 29.056C37.6765 29.44 35.3725 29.728 32.8765 29.92C31.2125 30.048 30.0765 30.128 29.4685 30.16C28.8285 33.424 27.9325 37.424 26.7805 42.16C26.1085 44.944 24.8285 46.336 22.9405 46.336C20.8925 46.336 19.8685 45.408 19.8685 43.552C19.8685 43.136 19.9485 42.56 20.1085 41.824C21.1965 37.44 22.0605 33.728 22.7005 30.688L20.3965 30.784C19.3405 30.784 18.5725 30.608 18.0925 30.256C17.6125 29.872 17.3725 29.264 17.3725 28.432C17.3725 27.376 17.6765 26.608 18.2845 26.128C18.8925 25.616 19.9005 25.328 21.3085 25.264L23.8525 25.168C24.6845 20.656 25.1005 17.216 25.1005 14.848C25.1005 13.344 24.8765 12.32 24.4285 11.776C23.9805 11.232 23.3885 10.96 22.6525 10.96C20.4125 10.96 17.8845 12.832 15.0685 16.576C14.6525 17.12 14.1885 17.392 13.6765 17.392C13.2285 17.392 12.8445 17.184 12.5245 16.768C12.2045 16.352 12.0445 15.824 12.0445 15.184C12.0445 14.192 12.4445 13.136 13.2445 12.016C14.6525 10.064 16.4285 8.46399 18.5725 7.21599C20.7165 5.93599 22.8925 5.29599 25.1005 5.29599C27.1805 5.29599 28.7805 6.01599 29.9005 7.45599C31.0525 8.86399 31.6285 11.072 31.6285 14.08C31.6285 16.736 31.2445 20.336 30.4765 24.88L35.1805 24.64C37.1965 24.544 38.9245 24.384 40.3645 24.16C40.9405 20.64 41.8205 17.344 43.0045 14.272C44.1885 11.2 45.6605 8.70399 47.4205 6.78399C49.1805 4.86399 51.1485 3.90399 53.3245 3.90399C54.9245 3.90399 56.1885 4.54399 57.1165 5.82399C58.0445 7.07199 58.5085 8.71999 58.5085 10.768C58.5085 18.704 54.4605 24.208 46.3645 27.28C46.2685 28.56 46.2205 29.888 46.2205 31.264C46.2205 34.624 46.6365 37.008 47.4685 38.416C48.3005 39.824 49.4685 40.528 50.9725 40.528C52.2845 40.528 53.4845 40.192 54.5725 39.52C55.6605 38.816 56.8925 37.632 58.2685 35.968C58.6525 35.52 59.0845 35.296 59.5645 35.296ZM53.0845 8.07999C52.3805 8.07999 51.6285 8.71999 50.8285 9.99999C50.0605 11.28 49.3245 13.024 48.6205 15.232C47.9165 17.44 47.3565 19.856 46.9405 22.48C49.5005 21.424 51.3885 19.92 52.6045 17.968C53.8205 16.016 54.4285 13.504 54.4285 10.432C54.4285 9.69599 54.3005 9.11999 54.0445 8.70399C53.7885 8.28799 53.4685 8.07999 53.0845 8.07999ZM78.9107 59.824C74.1427 59.824 70.0787 58.912 66.7187 57.088C63.3907 55.296 60.8627 52.848 59.1347 49.744C57.4387 46.64 56.5907 43.168 56.5907 39.328C56.5907 34.336 57.6147 29.648 59.6627 25.264C61.7427 20.88 64.8307 17.328 68.9267 14.608C73.0547 11.888 78.0147 10.528 83.8067 10.528C87.3587 10.528 90.4947 11.184 93.2147 12.496C95.9347 13.808 98.0627 15.76 99.5987 18.352C101.135 20.912 101.903 24.032 101.903 27.712C101.903 31.392 101.263 34.64 99.9827 37.456C98.7347 40.272 97.0867 42.448 95.0387 43.984C93.0227 45.488 90.9107 46.24 88.7027 46.24C85.4387 46.24 83.3267 44.896 82.3667 42.208C81.7587 43.456 80.9267 44.448 79.8707 45.184C78.8467 45.888 77.6787 46.24 76.3667 46.24C74.2227 46.24 72.5427 45.536 71.3267 44.128C70.1427 42.688 69.5507 40.784 69.5507 38.416C69.5507 35.856 70.1427 33.44 71.3267 31.168C72.5107 28.864 74.0787 27.024 76.0307 25.648C78.0147 24.24 80.1107 23.536 82.3187 23.536C83.0227 23.536 83.4867 23.68 83.7107 23.968C83.9667 24.224 84.1747 24.704 84.3347 25.408C85.0067 25.28 85.7107 25.216 86.4467 25.216C88.0147 25.216 88.7987 25.776 88.7987 26.896C88.7987 27.568 88.5587 29.168 88.0787 31.696C87.3427 35.376 86.9747 37.936 86.9747 39.376C86.9747 39.92 87.1507 40.368 87.5027 40.72C87.8547 41.072 88.4307 41.248 89.2307 41.248C90.2867 41.248 91.3747 40.656 92.4947 39.472C93.6147 38.256 94.5427 36.608 95.2787 34.528C96.0467 32.416 96.4307 30.112 96.4307 27.616C96.4307 23.776 95.2467 20.848 92.8787 18.832C90.5427 16.816 87.3267 15.808 83.2307 15.808C78.8467 15.808 75.1187 16.88 72.0467 19.024C68.9747 21.168 66.6707 24.016 65.1347 27.568C63.5987 31.088 62.8307 34.928 62.8307 39.088C62.8307 43.792 64.1747 47.552 66.8627 50.368C69.5827 53.216 73.6627 54.64 79.1027 54.64C81.5987 54.64 84.0627 54.304 86.4947 53.632C88.9587 52.992 91.5027 51.984 94.1267 50.608C94.5427 50.384 94.9427 50.272 95.3267 50.272C95.9667 50.272 96.4947 50.512 96.9107 50.992C97.3267 51.504 97.5347 52.112 97.5347 52.816C97.5347 53.328 97.4067 53.808 97.1507 54.256C96.8947 54.736 96.4947 55.136 95.9507 55.456C93.6467 56.864 90.9747 57.936 87.9347 58.672C84.9267 59.44 81.9187 59.824 78.9107 59.824ZM77.8067 41.392C78.5107 41.392 79.1827 40.976 79.8227 40.144C80.4627 39.312 80.9267 38.208 81.2147 36.832L82.9907 28C81.6467 28.032 80.3987 28.544 79.2467 29.536C78.1267 30.496 77.2307 31.776 76.5587 33.376C75.8867 34.976 75.5507 36.672 75.5507 38.464C75.5507 39.456 75.7427 40.192 76.1267 40.672C76.5427 41.152 77.1027 41.392 77.8067 41.392ZM111.545 20.464C110.201 20.464 109.193 20.16 108.521 19.552C107.849 18.912 107.513 18.032 107.513 16.912C107.513 15.792 107.945 14.864 108.809 14.128C109.705 13.36 110.809 12.976 112.121 12.976C113.305 12.976 114.265 13.264 115.001 13.84C115.737 14.416 116.105 15.232 116.105 16.288C116.105 17.568 115.689 18.592 114.857 19.36C114.025 20.096 112.921 20.464 111.545 20.464ZM111.161 46.24C109.081 46.24 107.561 45.504 106.601 44.032C105.673 42.56 105.209 40.608 105.209 38.176C105.209 36.736 105.385 34.896 105.737 32.656C106.121 30.384 106.601 28.272 107.177 26.32C107.465 25.296 107.849 24.592 108.329 24.208C108.809 23.824 109.577 23.632 110.633 23.632C112.265 23.632 113.081 24.176 113.081 25.264C113.081 26.064 112.777 27.92 112.169 30.832C111.401 34.352 111.017 36.736 111.017 37.984C111.017 38.944 111.145 39.68 111.401 40.192C111.657 40.704 112.089 40.96 112.697 40.96C113.273 40.96 113.993 40.56 114.857 39.76C115.721 38.96 116.873 37.696 118.313 35.968C118.697 35.52 119.129 35.296 119.609 35.296C120.025 35.296 120.345 35.488 120.569 35.872C120.825 36.256 120.953 36.784 120.953 37.456C120.953 38.736 120.649 39.728 120.041 40.432C116.873 44.304 113.913 46.24 111.161 46.24ZM136.462 30.208C137.166 30.208 137.758 30.464 138.238 30.976C138.75 31.456 139.006 32.064 139.006 32.8C139.006 33.216 138.91 33.664 138.718 34.144C138.206 35.328 137.486 36.32 136.558 37.12C135.63 37.92 134.606 38.32 133.486 38.32C132.59 38.32 131.822 38 131.182 37.36C130.574 36.72 130.27 35.856 130.27 34.768C130.27 34.16 130.302 33.504 130.366 32.8C130.43 32.288 130.462 31.936 130.462 31.744C130.462 31.488 130.398 31.296 130.27 31.168C130.174 31.04 130.046 30.976 129.886 30.976C129.438 30.976 128.83 31.52 128.062 32.608C127.294 33.664 126.526 35.072 125.758 36.832C124.99 38.592 124.366 40.448 123.886 42.4C123.534 43.936 123.134 44.96 122.686 45.472C122.238 45.984 121.502 46.24 120.478 46.24C119.262 46.24 118.398 45.6 117.886 44.32C117.406 43.04 117.166 40.992 117.166 38.176C117.166 34.016 117.758 30.064 118.942 26.32C119.23 25.392 119.694 24.72 120.334 24.304C121.006 23.856 121.934 23.632 123.118 23.632C123.758 23.632 124.206 23.712 124.462 23.872C124.718 24.032 124.846 24.336 124.846 24.784C124.846 25.296 124.606 26.448 124.126 28.24C123.806 29.52 123.55 30.64 123.358 31.6C123.166 32.56 123.006 33.744 122.878 35.152C123.934 32.4 125.118 30.16 126.43 28.432C127.742 26.704 129.022 25.472 130.27 24.736C131.518 24 132.654 23.632 133.678 23.632C134.606 23.632 135.31 23.904 135.79 24.448C136.302 24.96 136.558 25.728 136.558 26.752C136.558 27.36 136.382 28.512 136.03 30.208H136.462Z"/>
    </mask>
    <path d="M9.59198 20.464C8.24798 20.464 7.23998 20.16 6.56798 19.552C5.89598 18.912 5.55998 18.032 5.55998 16.912C5.55998 15.792 5.99198 14.864 6.85598 14.128C7.75198 13.36 8.85598 12.976 10.168 12.976C11.352 12.976 12.312 13.264 13.048 13.84C13.784 14.416 14.152 15.232 14.152 16.288C14.152 17.568 13.736 18.592 12.904 19.36C12.072 20.096 10.968 20.464 9.59198 20.464ZM9.20798 46.24C7.12798 46.24 5.60798 45.504 4.64798 44.032C3.71998 42.56 3.25598 40.608 3.25598 38.176C3.25598 36.736 3.43198 34.896 3.78398 32.656C4.16798 30.384 4.64798 28.272 5.22398 26.32C5.51198 25.296 5.89598 24.592 6.37598 24.208C6.85598 23.824 7.62398 23.632 8.67998 23.632C10.312 23.632 11.128 24.176 11.128 25.264C11.128 26.064 10.824 27.92 10.216 30.832C9.44798 34.352 9.06398 36.736 9.06398 37.984C9.06398 38.944 9.19198 39.68 9.44798 40.192C9.70398 40.704 10.136 40.96 10.744 40.96C11.32 40.96 12.04 40.56 12.904 39.76C13.768 38.96 14.92 37.696 16.36 35.968C16.744 35.52 17.176 35.296 17.656 35.296C18.072 35.296 18.392 35.488 18.616 35.872C18.872 36.256 19 36.784 19 37.456C19 38.736 18.696 39.728 18.088 40.432C14.92 44.304 11.96 46.24 9.20798 46.24ZM59.5645 35.296C59.9805 35.296 60.3005 35.488 60.5245 35.872C60.7805 36.256 60.9085 36.784 60.9085 37.456C60.9085 38.704 60.6045 39.696 59.9965 40.432C56.8285 44.304 53.4525 46.24 49.8685 46.24C46.7645 46.24 44.2845 45.04 42.4285 42.64C40.5725 40.24 39.6445 36.8 39.6445 32.32C39.6445 31.232 39.6925 30.144 39.7885 29.056C37.6765 29.44 35.3725 29.728 32.8765 29.92C31.2125 30.048 30.0765 30.128 29.4685 30.16C28.8285 33.424 27.9325 37.424 26.7805 42.16C26.1085 44.944 24.8285 46.336 22.9405 46.336C20.8925 46.336 19.8685 45.408 19.8685 43.552C19.8685 43.136 19.9485 42.56 20.1085 41.824C21.1965 37.44 22.0605 33.728 22.7005 30.688L20.3965 30.784C19.3405 30.784 18.5725 30.608 18.0925 30.256C17.6125 29.872 17.3725 29.264 17.3725 28.432C17.3725 27.376 17.6765 26.608 18.2845 26.128C18.8925 25.616 19.9005 25.328 21.3085 25.264L23.8525 25.168C24.6845 20.656 25.1005 17.216 25.1005 14.848C25.1005 13.344 24.8765 12.32 24.4285 11.776C23.9805 11.232 23.3885 10.96 22.6525 10.96C20.4125 10.96 17.8845 12.832 15.0685 16.576C14.6525 17.12 14.1885 17.392 13.6765 17.392C13.2285 17.392 12.8445 17.184 12.5245 16.768C12.2045 16.352 12.0445 15.824 12.0445 15.184C12.0445 14.192 12.4445 13.136 13.2445 12.016C14.6525 10.064 16.4285 8.46399 18.5725 7.21599C20.7165 5.93599 22.8925 5.29599 25.1005 5.29599C27.1805 5.29599 28.7805 6.01599 29.9005 7.45599C31.0525 8.86399 31.6285 11.072 31.6285 14.08C31.6285 16.736 31.2445 20.336 30.4765 24.88L35.1805 24.64C37.1965 24.544 38.9245 24.384 40.3645 24.16C40.9405 20.64 41.8205 17.344 43.0045 14.272C44.1885 11.2 45.6605 8.70399 47.4205 6.78399C49.1805 4.86399 51.1485 3.90399 53.3245 3.90399C54.9245 3.90399 56.1885 4.54399 57.1165 5.82399C58.0445 7.07199 58.5085 8.71999 58.5085 10.768C58.5085 18.704 54.4605 24.208 46.3645 27.28C46.2685 28.56 46.2205 29.888 46.2205 31.264C46.2205 34.624 46.6365 37.008 47.4685 38.416C48.3005 39.824 49.4685 40.528 50.9725 40.528C52.2845 40.528 53.4845 40.192 54.5725 39.52C55.6605 38.816 56.8925 37.632 58.2685 35.968C58.6525 35.52 59.0845 35.296 59.5645 35.296ZM53.0845 8.07999C52.3805 8.07999 51.6285 8.71999 50.8285 9.99999C50.0605 11.28 49.3245 13.024 48.6205 15.232C47.9165 17.44 47.3565 19.856 46.9405 22.48C49.5005 21.424 51.3885 19.92 52.6045 17.968C53.8205 16.016 54.4285 13.504 54.4285 10.432C54.4285 9.69599 54.3005 9.11999 54.0445 8.70399C53.7885 8.28799 53.4685 8.07999 53.0845 8.07999ZM78.9107 59.824C74.1427 59.824 70.0787 58.912 66.7187 57.088C63.3907 55.296 60.8627 52.848 59.1347 49.744C57.4387 46.64 56.5907 43.168 56.5907 39.328C56.5907 34.336 57.6147 29.648 59.6627 25.264C61.7427 20.88 64.8307 17.328 68.9267 14.608C73.0547 11.888 78.0147 10.528 83.8067 10.528C87.3587 10.528 90.4947 11.184 93.2147 12.496C95.9347 13.808 98.0627 15.76 99.5987 18.352C101.135 20.912 101.903 24.032 101.903 27.712C101.903 31.392 101.263 34.64 99.9827 37.456C98.7347 40.272 97.0867 42.448 95.0387 43.984C93.0227 45.488 90.9107 46.24 88.7027 46.24C85.4387 46.24 83.3267 44.896 82.3667 42.208C81.7587 43.456 80.9267 44.448 79.8707 45.184C78.8467 45.888 77.6787 46.24 76.3667 46.24C74.2227 46.24 72.5427 45.536 71.3267 44.128C70.1427 42.688 69.5507 40.784 69.5507 38.416C69.5507 35.856 70.1427 33.44 71.3267 31.168C72.5107 28.864 74.0787 27.024 76.0307 25.648C78.0147 24.24 80.1107 23.536 82.3187 23.536C83.0227 23.536 83.4867 23.68 83.7107 23.968C83.9667 24.224 84.1747 24.704 84.3347 25.408C85.0067 25.28 85.7107 25.216 86.4467 25.216C88.0147 25.216 88.7987 25.776 88.7987 26.896C88.7987 27.568 88.5587 29.168 88.0787 31.696C87.3427 35.376 86.9747 37.936 86.9747 39.376C86.9747 39.92 87.1507 40.368 87.5027 40.72C87.8547 41.072 88.4307 41.248 89.2307 41.248C90.2867 41.248 91.3747 40.656 92.4947 39.472C93.6147 38.256 94.5427 36.608 95.2787 34.528C96.0467 32.416 96.4307 30.112 96.4307 27.616C96.4307 23.776 95.2467 20.848 92.8787 18.832C90.5427 16.816 87.3267 15.808 83.2307 15.808C78.8467 15.808 75.1187 16.88 72.0467 19.024C68.9747 21.168 66.6707 24.016 65.1347 27.568C63.5987 31.088 62.8307 34.928 62.8307 39.088C62.8307 43.792 64.1747 47.552 66.8627 50.368C69.5827 53.216 73.6627 54.64 79.1027 54.64C81.5987 54.64 84.0627 54.304 86.4947 53.632C88.9587 52.992 91.5027 51.984 94.1267 50.608C94.5427 50.384 94.9427 50.272 95.3267 50.272C95.9667 50.272 96.4947 50.512 96.9107 50.992C97.3267 51.504 97.5347 52.112 97.5347 52.816C97.5347 53.328 97.4067 53.808 97.1507 54.256C96.8947 54.736 96.4947 55.136 95.9507 55.456C93.6467 56.864 90.9747 57.936 87.9347 58.672C84.9267 59.44 81.9187 59.824 78.9107 59.824ZM77.8067 41.392C78.5107 41.392 79.1827 40.976 79.8227 40.144C80.4627 39.312 80.9267 38.208 81.2147 36.832L82.9907 28C81.6467 28.032 80.3987 28.544 79.2467 29.536C78.1267 30.496 77.2307 31.776 76.5587 33.376C75.8867 34.976 75.5507 36.672 75.5507 38.464C75.5507 39.456 75.7427 40.192 76.1267 40.672C76.5427 41.152 77.1027 41.392 77.8067 41.392ZM111.545 20.464C110.201 20.464 109.193 20.16 108.521 19.552C107.849 18.912 107.513 18.032 107.513 16.912C107.513 15.792 107.945 14.864 108.809 14.128C109.705 13.36 110.809 12.976 112.121 12.976C113.305 12.976 114.265 13.264 115.001 13.84C115.737 14.416 116.105 15.232 116.105 16.288C116.105 17.568 115.689 18.592 114.857 19.36C114.025 20.096 112.921 20.464 111.545 20.464ZM111.161 46.24C109.081 46.24 107.561 45.504 106.601 44.032C105.673 42.56 105.209 40.608 105.209 38.176C105.209 36.736 105.385 34.896 105.737 32.656C106.121 30.384 106.601 28.272 107.177 26.32C107.465 25.296 107.849 24.592 108.329 24.208C108.809 23.824 109.577 23.632 110.633 23.632C112.265 23.632 113.081 24.176 113.081 25.264C113.081 26.064 112.777 27.92 112.169 30.832C111.401 34.352 111.017 36.736 111.017 37.984C111.017 38.944 111.145 39.68 111.401 40.192C111.657 40.704 112.089 40.96 112.697 40.96C113.273 40.96 113.993 40.56 114.857 39.76C115.721 38.96 116.873 37.696 118.313 35.968C118.697 35.52 119.129 35.296 119.609 35.296C120.025 35.296 120.345 35.488 120.569 35.872C120.825 36.256 120.953 36.784 120.953 37.456C120.953 38.736 120.649 39.728 120.041 40.432C116.873 44.304 113.913 46.24 111.161 46.24ZM136.462 30.208C137.166 30.208 137.758 30.464 138.238 30.976C138.75 31.456 139.006 32.064 139.006 32.8C139.006 33.216 138.91 33.664 138.718 34.144C138.206 35.328 137.486 36.32 136.558 37.12C135.63 37.92 134.606 38.32 133.486 38.32C132.59 38.32 131.822 38 131.182 37.36C130.574 36.72 130.27 35.856 130.27 34.768C130.27 34.16 130.302 33.504 130.366 32.8C130.43 32.288 130.462 31.936 130.462 31.744C130.462 31.488 130.398 31.296 130.27 31.168C130.174 31.04 130.046 30.976 129.886 30.976C129.438 30.976 128.83 31.52 128.062 32.608C127.294 33.664 126.526 35.072 125.758 36.832C124.99 38.592 124.366 40.448 123.886 42.4C123.534 43.936 123.134 44.96 122.686 45.472C122.238 45.984 121.502 46.24 120.478 46.24C119.262 46.24 118.398 45.6 117.886 44.32C117.406 43.04 117.166 40.992 117.166 38.176C117.166 34.016 117.758 30.064 118.942 26.32C119.23 25.392 119.694 24.72 120.334 24.304C121.006 23.856 121.934 23.632 123.118 23.632C123.758 23.632 124.206 23.712 124.462 23.872C124.718 24.032 124.846 24.336 124.846 24.784C124.846 25.296 124.606 26.448 124.126 28.24C123.806 29.52 123.55 30.64 123.358 31.6C123.166 32.56 123.006 33.744 122.878 35.152C123.934 32.4 125.118 30.16 126.43 28.432C127.742 26.704 129.022 25.472 130.27 24.736C131.518 24 132.654 23.632 133.678 23.632C134.606 23.632 135.31 23.904 135.79 24.448C136.302 24.96 136.558 25.728 136.558 26.752C136.558 27.36 136.382 28.512 136.03 30.208H136.462Z"
          stroke="#E6C100" stroke-width="6" mask="url(#path-1-outside-1)"/>
</svg>
